inDegrees=yes
name=ik_S42_A12_T02
DataType=double
version=3
OpenSimVersion=4.3-2021-08-27-4bc7ad9
endheader
time	pelvis_tilt	pelvis_list	pelvis_rotation	pelvis_tx	pelvis_ty	pelvis_tz	hip_flexion_r	hip_adduction_r	hip_rotation_r	knee_angle_r	knee_angle_r_beta	ankle_angle_r	subtalar_angle_r	mtp_angle_r	hip_flexion_l	hip_adduction_l	hip_rotation_l	knee_angle_l	knee_angle_l_beta	ankle_angle_l	subtalar_angle_l	mtp_angle_l	lumbar_extension	lumbar_bending	lumbar_rotation	arm_flex_r	arm_add_r	arm_rot_r	elbow_flex_r	pro_sup_r	wrist_flex_r	wrist_dev_r	arm_flex_l	arm_add_l	arm_rot_l	elbow_flex_l	pro_sup_l	wrist_flex_l	wrist_dev_l
0	0	0	0	0	0.9399999999999999	0	0	0	0	0	0	0	0	0	0	0	0	0	0	0	0	0	0	0	0	0	0	0	0	89.99999999963507	0	0	0	0	0	0	89.99999999869995	0	0
0.02	-1.215763339165578	0.3274797252457291	12.31979097761312	0	0.9399999999999999	0	1.647199160834732	-0.7694782447433484	-0.5541662933553515	2.595870064827612	0.04530647958520048	0	0	0	1.647199160834732	-0.7694782447433484	-0.5541662933553515	2.595870064827612	0.04530647958520048	0	0	0	-1.064026958900172	0.251135679441655	5.042616082027703	6.326621391424927	-1.840995262387005	-3.897927147731096	2.86794875325317	116.704181241377	0	0	3.371192603132165	-1.07818052316285	-0.1375692826851945	4.879391555167056	90.87453680567187	0	0
0.04	-1.204072472697821	0.3212049203418973	12.37008101047642	0	0.9399999999999999	0	2.045508821860251	-0.9445242405288878	-0.7025926366235671	2.853595236375455	0.04980463239397754	0	0	0	2.045508821860251	-0.9445242405288878	-0.7025926366235671	2.853595236375455	0.04980463239397754	0	0	0	-1.054498681574781	0.2451573280568462	5.003553611924443	6.34723449751804	-1.834632744230279	-3.86755783188051	2.870074065201081	116.6421064750329	0	0	3.347405796577184	-1.096829686201204	-0.1161501323427583	4.94848340155319	90.76071934340379	0	0
0.06	-1.169004504822822	0.3273772520503091	12.40991137765544	0	0.9399999999999999	0	2.060310199412385	-0.9522669372545628	-0.707607616257289	2.876111701279463	0.05019761884246223	0	0	0	2.060310199412385	-0.9522669372545628	-0.707607616257289	2.876111701279463	0.05019761884246223	0	0	0	-1.018893534841697	0.2438281518432319	4.995792092530762	6.272430824383693	-1.831822687122278	-3.922886052728227	2.841620670370542	116.7046812299533	0	0	3.307400352836044	-1.111166822937335	-0.2908703933792799	4.891444993495944	90.90372440865795	0	0
0.08	-1.137346274109773	0.333202087591133	12.65132781908974	0	0.9399999999999999	0	4.066872739588507	-1.855356178710349	-1.433401242467113	4.74181539649654	0.08276029119062502	0	0	0	4.066872739588507	-1.855356178710349	-1.433401242467113	4.74181539649654	0.08276029119062502	0	0	0	-0.994102269529084	0.271014328086618	4.769681408994825	6.234625841910561	-1.833740890710775	-3.94038968712317	2.86251815445524	116.6776537363998	0	0	3.258643780402665	-1.089556395625497	-0.2964759070826351	4.934492279084266	90.84165968942601	0	0
0.1	-1.103302279225967	0.340156580852771	12.69464295438688	0	0.9399999999999999	0	4.373973683285123	-1.981996608440728	-1.54191654777834	4.978467818338663	0.0868906551345886	0	0	0	4.373973683285123	-1.981996608440728	-1.54191654777834	4.978467818338663	0.0868906551345886	0	0	0	-0.9598375098158025	0.2723800670539834	4.735366380827062	6.16027135575764	-1.838738657988283	-3.942856754805628	2.866757958181112	116.6806410011937	0	0	3.22490871802757	-1.097066332459521	-0.3206059920874196	4.939640145423292	90.84746916268401	0	0
0.12	-1.075684022492114	0.3564391245552617	12.70762168694512	0	0.9399999999999999	0	4.507349141232666	-2.041238192081502	-1.588457081883846	5.110112657729515	0.08918829102521811	0	0	0	4.507349141232666	-2.041238192081502	-1.588457081883846	5.110112657729515	0.08918829102521811	0	0	0	-0.9294922354442607	0.282702320185411	4.741393306460886	6.117650161226654	-1.858352844554485	-3.961659662786653	2.90919729027274	116.6902003688775	0	0	3.158564894560294	-1.103923266246427	-0.2918603401438479	4.974259727375421	90.84433082279763	0	0
0.14	-1.049126819452102	0.358796364609131	12.70979802897319	0	0.9399999999999999	0	4.924455967280259	-2.208868144647731	-1.734076062256136	5.432657362756147	0.09481775811280672	0	0	0	4.924455967280259	-2.208868144647731	-1.734076062256136	5.432657362756147	0.09481775811280672	0	0	0	-0.9034721173609127	0.2809490536002213	4.736353296426302	6.062225863938765	-1.861633031388873	-4.014099467837897	2.85483256449525	116.6639699935783	0	0	3.105973350541281	-1.111040047692743	-0.2793009546807013	4.971751372276596	90.79031856662705	0	0
0.16	-1.056828232930934	0.3625860570085898	12.72064336654686	0	0.9399999999999999	0	5.244103935890548	-2.337465615063434	-1.844898936392029	5.68861528339243	0.0992850665744682	0	0	0	5.244103935890548	-2.337465615063434	-1.844898936392029	5.68861528339243	0.0992850665744682	0	0	0	-0.910455160541019	0.2875458138859928	4.716663814553545	6.07722143080595	-1.876659233366875	-3.986473263625839	2.864979880589207	116.5814764846334	0	0	3.107123090839953	-1.122435090788392	-0.2481967930030406	5.017623813551059	90.75070995334588	0	0
0.18	-1.047943240284323	0.3615383076336256	12.7318650314901	0	0.9399999999999999	0	5.71784123160167	-2.529396193149879	-2.007420105104129	6.099908431938548	0.1064634862074921	0	0	0	5.71784123160167	-2.529396193149879	-2.007420105104129	6.099908431938548	0.1064634862074921	0	0	0	-0.9027263927726705	0.2865941372464613	4.7094581172132	6.037096148614042	-1.879377675393025	-4.002267195815713	2.873404739350431	116.6146516701271	0	0	3.101110323304445	-1.128580674287614	-0.216871718690551	4.972566094944759	90.72347895918347	0	0
0.2	-0.9901243477672729	0.3838398985303875	12.7312414364585	0	0.9399999999999999	0	5.786268415779313	-2.568053169164914	-2.032316294989412	6.188424636310207	0.1080083854151457	0	0	0	5.786268415779313	-2.568053169164914	-2.032316294989412	6.188424636310207	0.1080083854151457	0	0	0	-0.8412556123904735	0.2957814562609493	4.709936003327307	5.911834212877705	-1.871388069363111	-3.987945285887039	2.898393853580699	116.6011807041805	0	0	2.979403975999106	-1.10594539144241	-0.1965147715047944	4.985817127504198	90.7151715814539	0	0
0.22	-0.9867296679643294	0.3837782616164238	12.72294515593651	0	0.9399999999999999	0	5.979483553470549	-2.646871041556959	-2.097927627171858	6.367376254427547	0.1111316803530649	0	0	0	5.979483553470549	-2.646871041556959	-2.097927627171858	6.367376254427547	0.1111316803530649	0	0	0	-0.8378849362646141	0.294761117367531	4.715229013336239	5.896833025067127	-1.891258718155505	-3.963241661261601	2.915913539664978	116.5609248315551	0	0	2.978140943359644	-1.140243281683327	-0.169579465246531	5.061154774934264	90.67621402619626	0	0
0.24	-0.9887912178770134	0.3800894546777438	12.72975028391389	0	0.9399999999999999	0	6.314621514866226	-2.776579594524786	-2.211622838449885	6.64472171299477	0.1159722717705164	0	0	0	6.314621514866226	-2.776579594524786	-2.211622838449885	6.64472171299477	0.1159722717705164	0	0	0	-0.841140766409411	0.2930307564365844	4.69569161353207	5.917091456369795	-1.88192859589375	-3.959094982784143	2.884890360179354	116.5070786346388	0	0	2.973797493896634	-1.165082753254302	-0.1384578311065337	5.091818772240945	90.61507943433882	0	0
0.26	-0.9705854134039188	0.3911408093446522	12.73562382288218	0	0.9399999999999999	0	6.715141986218503	-2.933110964297536	-2.346535023379735	6.99773243625347	0.1221334711862272	0	0	0	6.715141986218503	-2.933110964297536	-2.346535023379735	6.99773243625347	0.1221334711862272	0	0	0	-0.8216429837563692	0.3014615272139447	4.687863298347489	5.866755874388241	-1.89464016780462	-3.983141624588824	2.896494750867668	116.5980270077802	0	0	2.864858863939555	-1.168527653840658	0.01043460192957966	5.155196831339039	90.46566332984499	0	0
0.28	-0.9454337938659011	0.403872060325435	12.71264074503454	0	0.9399999999999999	0	6.731322933793027	-2.941100819090672	-2.35203996978111	7.019700151711632	0.1225168801501134	0	0	0	6.731322933793027	-2.941100819090672	-2.35203996978111	7.019700151711632	0.1225168801501134	0	0	0	-0.7945504357539419	0.3079539735068572	4.723606186850035	5.800328198398042	-1.902509122188027	-4.019893444753168	2.897146699105916	116.5618125386213	0	0	2.733419551805095	-1.166120196541247	0.3292395913242053	5.2949886892595	90.28711801068084	0	0
